<svg version="1.2" xmlns="http://www.w3.org/2000/svg" width="512" height="512"><path fill="#303841" d="M256 11.9A246.3 246.3 0 0012.4 240.5c-7.9 126.9 86.7 241.8 213 257.6 126.2 15.8 246.8-71.5 270.4-196.7 23.6-125-56.3-250.9-179.7-282.1a248.5 248.5 0 00-60.1-7.4zm144.3 388.4a203.9 203.9 0 01-77.7 48.7c-50.6-6.9-89.5-46.2-89.5-93.5V170.9h-33.4V190h-4.8c-10.3-21-33.8-26.6-55.2-20.8-29.3 7.9-43.5 36.5-43.5 65.1v4.8c0 25.3 10 52.3 34.9 62.7 22.5 9.4 52.6 5.2 63.8-18.4h4.8v72.1h-.1c0 43.1 23.2 81.4 58.7 104.6C103.4 461.8 1.3 288.7 79 154.2A206 206 0 01256 51.9c62.9 0 105.5 60.1 105.5 119V190h-4.8c-10.3-21-33.8-26.6-55.1-20.8-29.3 7.9-43.5 36.5-43.5 65.1v4.8c0 25.3 10 52.3 34.9 62.7 22.5 9.4 52.6 5.2 63.8-18.4h4.8v32.3c0 5.3-2.4 8-7.2 8H286v31.8h88.6a20 20 0 0020.4-20.7V170.9h.1c0-30.2-8-58.4-21.9-82.1 102.1 71.9 115.6 223 27.1 311.5-22.3 22.3 38.5-38.5 0 0zm-200.6-162c0 46.9-70 47.1-70 0v-3.2c0-47.1 70-46.9 70 0v3.2zm161.8-3.2v3.2c0 46.9-70 47.1-70 0v-3.2c0-47.1 70-46.9 70 0z"/></svg>